<mxfile host="app.diagrams.net" modified="2024-04-09T03:06:48.519Z" agent="Mozilla/5.0 (Windows NT 10.0; Win64; x64; rv:124.0) Gecko/20100101 Firefox/124.0" etag="p62bLg0Z1C6IrqtB0SVU" version="24.2.3" type="github" pages="2">
  <diagram id="C5RBs43oDa-KdzZeNtuy" name="INICIO JORNADA">
    <mxGraphModel dx="880" dy="508" grid="1" gridSize="10" guides="1" tooltips="1" connect="1" arrows="1" fold="1" page="1" pageScale="1" pageWidth="827" pageHeight="1169" math="0" shadow="0">
      <root>
        <mxCell id="WIyWlLk6GJQsqaUBKTNV-0" />
        <mxCell id="WIyWlLk6GJQsqaUBKTNV-1" parent="WIyWlLk6GJQsqaUBKTNV-0" />
        <mxCell id="WIyWlLk6GJQsqaUBKTNV-4" value="" style="rounded=0;html=1;jettySize=auto;orthogonalLoop=1;fontSize=11;endArrow=block;endFill=0;endSize=8;strokeWidth=1;shadow=0;labelBackgroundColor=none;edgeStyle=orthogonalEdgeStyle;exitX=0.5;exitY=1;exitDx=0;exitDy=0;" parent="WIyWlLk6GJQsqaUBKTNV-1" source="x7VhPs1z7V3mAD25eQ-0-0" target="x7VhPs1z7V3mAD25eQ-0-1" edge="1">
          <mxGeometry y="20" relative="1" as="geometry">
            <mxPoint as="offset" />
            <mxPoint x="220" y="250" as="sourcePoint" />
            <mxPoint x="220" y="270" as="targetPoint" />
          </mxGeometry>
        </mxCell>
        <mxCell id="x7VhPs1z7V3mAD25eQ-0-0" value="&lt;div&gt;Toma&amp;nbsp;&lt;/div&gt;&lt;div&gt;de&lt;/div&gt;&lt;div&gt;Medición&lt;br&gt; &lt;/div&gt;" style="shape=process;whiteSpace=wrap;html=1;backgroundOutline=1;" vertex="1" parent="WIyWlLk6GJQsqaUBKTNV-1">
          <mxGeometry x="160" y="170" width="120" height="50" as="geometry" />
        </mxCell>
        <mxCell id="x7VhPs1z7V3mAD25eQ-0-2" style="edgeStyle=orthogonalEdgeStyle;rounded=0;orthogonalLoop=1;jettySize=auto;html=1;" edge="1" parent="WIyWlLk6GJQsqaUBKTNV-1" source="x7VhPs1z7V3mAD25eQ-0-1">
          <mxGeometry relative="1" as="geometry">
            <mxPoint x="220" y="370" as="targetPoint" />
          </mxGeometry>
        </mxCell>
        <mxCell id="x7VhPs1z7V3mAD25eQ-0-1" value="&lt;div&gt;Registra&lt;/div&gt;&lt;div&gt;lectura&lt;br&gt;&lt;/div&gt;" style="html=1;strokeWidth=2;shape=manualInput;whiteSpace=wrap;rounded=1;size=13;arcSize=11;" vertex="1" parent="WIyWlLk6GJQsqaUBKTNV-1">
          <mxGeometry x="170" y="270" width="100" height="50" as="geometry" />
        </mxCell>
        <mxCell id="x7VhPs1z7V3mAD25eQ-0-3" value="" style="strokeWidth=2;html=1;shape=mxgraph.flowchart.terminator;whiteSpace=wrap;" vertex="1" parent="WIyWlLk6GJQsqaUBKTNV-1">
          <mxGeometry x="175" y="370" width="90" height="50" as="geometry" />
        </mxCell>
        <mxCell id="x7VhPs1z7V3mAD25eQ-0-6" style="edgeStyle=orthogonalEdgeStyle;rounded=0;orthogonalLoop=1;jettySize=auto;html=1;" edge="1" parent="WIyWlLk6GJQsqaUBKTNV-1" source="x7VhPs1z7V3mAD25eQ-0-4" target="x7VhPs1z7V3mAD25eQ-0-0">
          <mxGeometry relative="1" as="geometry" />
        </mxCell>
        <mxCell id="x7VhPs1z7V3mAD25eQ-0-4" value="&lt;div&gt;Inicio Diario&lt;/div&gt;&lt;div&gt;Fase I&lt;br&gt;&lt;/div&gt;" style="strokeWidth=2;html=1;shape=mxgraph.flowchart.terminator;whiteSpace=wrap;" vertex="1" parent="WIyWlLk6GJQsqaUBKTNV-1">
          <mxGeometry x="170" y="60" width="100" height="50" as="geometry" />
        </mxCell>
      </root>
    </mxGraphModel>
  </diagram>
  <diagram id="pT7MzxecGG4wujVrWrOr" name="Página-2">
    <mxGraphModel dx="880" dy="508" grid="1" gridSize="10" guides="1" tooltips="1" connect="1" arrows="1" fold="1" page="1" pageScale="1" pageWidth="827" pageHeight="1169" math="0" shadow="0">
      <root>
        <mxCell id="0" />
        <mxCell id="1" parent="0" />
        <mxCell id="-Nrn2JkLKy3yYLWhkv5x-1" value="Actor" style="shape=umlActor;verticalLabelPosition=bottom;verticalAlign=top;html=1;outlineConnect=0;" vertex="1" parent="1">
          <mxGeometry x="120" y="170" width="70" height="160" as="geometry" />
        </mxCell>
        <mxCell id="-Nrn2JkLKy3yYLWhkv5x-3" value="&lt;div&gt;Registros&lt;/div&gt;&lt;div&gt;Tanques&lt;br&gt;&lt;/div&gt;" style="swimlane;fontStyle=0;childLayout=stackLayout;horizontal=1;startSize=30;horizontalStack=0;resizeParent=1;resizeParentMax=0;resizeLast=0;collapsible=1;marginBottom=0;whiteSpace=wrap;html=1;" vertex="1" parent="1">
          <mxGeometry x="320" y="110" width="140" height="120" as="geometry" />
        </mxCell>
        <mxCell id="-Nrn2JkLKy3yYLWhkv5x-4" value="Incluir datos Tanques" style="text;strokeColor=none;fillColor=none;align=left;verticalAlign=middle;spacingLeft=4;spacingRight=4;overflow=hidden;points=[[0,0.5],[1,0.5]];portConstraint=eastwest;rotatable=0;whiteSpace=wrap;html=1;" vertex="1" parent="-Nrn2JkLKy3yYLWhkv5x-3">
          <mxGeometry y="30" width="140" height="30" as="geometry" />
        </mxCell>
        <mxCell id="-Nrn2JkLKy3yYLWhkv5x-5" value="Modificar" style="text;strokeColor=none;fillColor=none;align=left;verticalAlign=middle;spacingLeft=4;spacingRight=4;overflow=hidden;points=[[0,0.5],[1,0.5]];portConstraint=eastwest;rotatable=0;whiteSpace=wrap;html=1;" vertex="1" parent="-Nrn2JkLKy3yYLWhkv5x-3">
          <mxGeometry y="60" width="140" height="30" as="geometry" />
        </mxCell>
        <mxCell id="-Nrn2JkLKy3yYLWhkv5x-6" value="Item 3" style="text;strokeColor=none;fillColor=none;align=left;verticalAlign=middle;spacingLeft=4;spacingRight=4;overflow=hidden;points=[[0,0.5],[1,0.5]];portConstraint=eastwest;rotatable=0;whiteSpace=wrap;html=1;" vertex="1" parent="-Nrn2JkLKy3yYLWhkv5x-3">
          <mxGeometry y="90" width="140" height="30" as="geometry" />
        </mxCell>
        <mxCell id="-Nrn2JkLKy3yYLWhkv5x-9" style="edgeStyle=orthogonalEdgeStyle;rounded=0;orthogonalLoop=1;jettySize=auto;html=1;entryX=0.429;entryY=1.125;entryDx=0;entryDy=0;entryPerimeter=0;" edge="1" parent="1" source="-Nrn2JkLKy3yYLWhkv5x-1" target="-Nrn2JkLKy3yYLWhkv5x-1">
          <mxGeometry relative="1" as="geometry" />
        </mxCell>
      </root>
    </mxGraphModel>
  </diagram>
</mxfile>
